<?xml version="1.0" encoding="UTF-8"?>
<!-- Generator: Adobe Illustrator 23.0.4, SVG Export Plug-In . SVG Version: 6.00 Build 0)  -->
<svg xmlns="http://www.w3.org/2000/svg" xmlns:xlink="http://www.w3.org/1999/xlink" id="Layer_1" x="0px" y="0px" viewBox="0 0 60.6 60.6" style="enable-background:new 0 0 60.6 60.6;" xml:space="preserve">
  <style type="text/css">
    .st0 {
      fill: #562F91;
    }

    .st1 {
      fill: #FFFFFF;
    }

  </style>
  <circle class="st0" cx="30.3" cy="30.3" r="30.3"></circle>
  <g>
    <path class="st1" d="M10.8,39.1l1.5-1.3c1.4,2,3.9,3.5,7.1,3.5c3.9,0,6.4-2,6.4-5.4c0-3.6-3-5.2-6.8-5.2c-1,0-2,0-2.3,0.1v-2   c0.4,0,1.3,0,2.3,0c3.4,0,6.4-1.4,6.4-4.8c0-3.1-2.8-4.9-6.1-4.9c-2.9,0-4.9,1.1-6.8,3.2l-1.4-1.4c1.8-2.2,4.6-3.8,8.3-3.8   c4.4,0,8.1,2.4,8.1,6.7c0,3.9-3.3,5.5-5.4,5.9c2.2,0.2,5.8,2.1,5.8,6.3s-3.1,7.3-8.5,7.3C15.3,43.3,12.3,41.4,10.8,39.1z"></path>
    <path class="st1" d="M30.7,42.9V17.6h8.1c7.8,0,12.8,5.7,12.8,12.6c0,7-4.9,12.6-12.8,12.6L30.7,42.9L30.7,42.9z M49.2,30.3   c0-5.9-3.8-10.7-10.5-10.7h-5.9v21.3h5.9C45.4,40.9,49.2,36.2,49.2,30.3z"></path>
  </g>
</svg>
